<svg width="32" height="32" viewBox="0 0 32 32" fill="none" xmlns="http://www.w3.org/2000/svg">
<path d="M2.66602 13.3334H29.3327" stroke="#030712" stroke-width="2" stroke-miterlimit="10" stroke-linecap="round" stroke-linejoin="round"/>
<path d="M15.3971 27.333H8.58374C3.85041 27.333 2.65039 26.1597 2.65039 21.4797V10.5197C2.65039 6.27969 3.6371 4.91969 7.3571 4.70636C7.73043 4.69303 8.14374 4.67969 8.58374 4.67969H23.3971C28.1304 4.67969 29.3304 5.85302 29.3304 10.533V16.413" stroke="#030712" stroke-width="2" stroke-linecap="round" stroke-linejoin="round"/>
<path d="M8 21.3334H13.3333" stroke="#030712" stroke-width="2" stroke-miterlimit="10" stroke-linecap="round" stroke-linejoin="round"/>
<path d="M29.3327 24C29.3327 25 29.0527 25.9466 28.5593 26.7466C27.6393 28.2933 25.946 29.3333 23.9993 29.3333C22.0527 29.3333 20.3594 28.2933 19.4394 26.7466C18.946 25.9466 18.666 25 18.666 24C18.666 21.0533 21.0527 18.6666 23.9993 18.6666C26.946 18.6666 29.3327 21.0533 29.3327 24Z" stroke="#030712" stroke-width="2" stroke-miterlimit="10" stroke-linecap="round" stroke-linejoin="round"/>
<path d="M21.9219 23.9994L23.2419 25.3194L26.0819 22.6927" stroke="#030712" stroke-width="2" stroke-linecap="round" stroke-linejoin="round"/>
</svg>
