<svg width="57" height="34" viewBox="0 0 57 34" fill="none" xmlns="http://www.w3.org/2000/svg">
<path d="M4.59439 17.8168C4.27715 17.8168 3.95344 17.7458 3.66209 17.5975L1.44791 16.5007C0.412029 15.9846 -0.00881159 14.7265 0.502655 13.6942L6.76975 1.15868C7.28769 0.126422 8.55015 -0.292939 9.58603 0.216741L11.8002 1.31352C12.2988 1.56513 12.6743 1.99094 12.8555 2.51997C13.0368 3.04901 12.9915 3.61676 12.7455 4.11999L6.4784 16.6555C6.2259 17.1523 5.79861 17.5265 5.26772 17.7071C5.04759 17.7781 4.82099 17.8168 4.60087 17.8168H4.59439ZM2.09534 15.191L4.30952 16.2878C4.4649 16.3652 4.63323 16.3781 4.79509 16.32C4.95695 16.2684 5.08644 16.1523 5.16413 16.0039L11.4312 3.46836C11.5089 3.31353 11.5219 3.14578 11.4636 2.98449C11.4118 2.8232 11.2952 2.69416 11.1463 2.61674L8.93861 1.51998C8.62137 1.36514 8.2394 1.49417 8.08402 1.80385L1.81693 14.3394C1.66155 14.6555 1.79103 15.0362 2.1018 15.191H2.09534Z" fill="#010101"/>
<path d="M38.8169 21.1007C38.4025 21.1007 37.9817 21.0104 37.5867 20.8104L28.5422 16.32C28.1796 16.1394 28.0307 15.7007 28.212 15.3458C28.3933 14.991 28.8335 14.8361 29.1896 15.0168L38.2342 19.5071C38.8751 19.8297 39.665 19.5652 39.9822 18.92C40.1376 18.6104 40.1635 18.2555 40.0534 17.9265C39.9434 17.5975 39.7103 17.3329 39.3995 17.1781L29.5198 12.2748C29.1573 12.0942 29.0083 11.6555 29.1896 11.3007C29.3709 10.9394 29.8112 10.7974 30.1672 10.9716L40.047 15.8749C40.7073 16.2039 41.1994 16.7716 41.4389 17.4684C41.672 18.1652 41.6202 18.9136 41.29 19.5716C40.8044 20.5394 39.8268 21.1007 38.8104 21.1007H38.8169Z" fill="#010101"/>
<path d="M15.1152 5.94526C14.0599 5.94526 12.9527 5.79687 12.0334 5.3388C11.6708 5.15816 11.5219 4.71946 11.7032 4.36462C11.8845 4.00332 12.3247 3.86138 12.6808 4.03558C13.6325 4.50655 15.141 4.61623 16.9344 4.34526C18.5077 4.10655 19.9514 3.99042 21.3758 3.99687C21.7772 3.99687 22.1074 4.32591 22.1009 4.72591C22.1009 5.12591 21.7707 5.44849 21.3693 5.44849C21.3304 5.44849 21.2981 5.44849 21.2592 5.44849C19.9514 5.44849 18.6048 5.55817 17.1545 5.77753C16.5524 5.86785 15.8403 5.94526 15.1087 5.94526H15.1152Z" fill="#010101"/>
<path d="M38.7783 25.6104C38.364 25.6104 37.9431 25.52 37.5482 25.32L26.7297 19.9523C26.3671 19.7716 26.2182 19.3329 26.3995 18.9781C26.5808 18.6232 27.021 18.4748 27.3771 18.649L38.1956 24.0168C38.8366 24.3329 39.6264 24.0749 39.9437 23.4297C40.099 23.12 40.1249 22.7652 40.0149 22.4361C39.9048 22.1071 39.6718 21.8426 39.361 21.6878L28.5425 16.32C28.1799 16.1394 28.031 15.7006 28.2123 15.3458C28.3936 14.991 28.8338 14.8361 29.1899 15.0168L40.0084 20.3845C41.3745 21.062 41.9313 22.72 41.2515 24.0813C40.7659 25.0491 39.7883 25.6104 38.7718 25.6104H38.7783Z" fill="#010101"/>
<path d="M36.9649 29.2428C36.5505 29.2428 36.1297 29.1525 35.7348 28.9525L28.1987 25.3395C27.8362 25.1653 27.6808 24.7266 27.8556 24.3654C28.0304 24.0041 28.4707 23.8492 28.8332 24.0234L36.3822 27.6428C37.0361 27.9654 37.8195 27.7073 38.1367 27.0621C38.2921 26.7525 38.318 26.3976 38.2079 26.0686C38.0979 25.7395 37.8648 25.475 37.554 25.3202L26.7356 19.9524C26.373 19.7718 26.2241 19.3331 26.4054 18.9782C26.5867 18.6234 27.0269 18.475 27.383 18.6492L38.2015 24.017C38.8618 24.346 39.3539 24.9073 39.5934 25.6105C39.8265 26.3073 39.7747 27.0557 39.4445 27.7138C38.959 28.6815 37.9813 29.2428 36.9649 29.2428Z" fill="#010101"/>
<path d="M31.9158 31.2681C31.495 31.2681 31.0741 31.1714 30.6857 30.9778L30.3425 30.8036C29.98 30.623 29.8311 30.1843 30.0124 29.8294C30.1936 29.4681 30.6339 29.3198 30.99 29.5004L31.3331 29.6746C31.6439 29.8294 31.9999 29.8552 32.3301 29.7456C32.6603 29.6359 32.9258 29.4036 33.0812 29.0939C33.4049 28.4552 33.1394 27.6681 32.4985 27.352L28.1996 25.3455C27.837 25.1778 27.6752 24.7391 27.85 24.3778C28.0248 24.0165 28.4585 23.8552 28.8211 24.0294L33.133 26.0423C34.512 26.7262 35.0687 28.3843 34.3889 29.7456C34.0588 30.4036 33.4955 30.894 32.7898 31.1327C32.4985 31.2294 32.2071 31.2746 31.9093 31.2746L31.9158 31.2681Z" fill="#010101"/>
<path d="M10.977 20.8232C10.8151 20.8232 10.6532 20.7716 10.5237 20.6619C9.74684 20.0426 9.1771 19.4361 8.82102 18.8619C8.04411 17.5909 6.36727 16.6425 6.34785 16.6361C5.99824 16.4425 5.86876 15.9974 6.06946 15.6425C6.26369 15.2941 6.71041 15.1651 7.06002 15.3587C7.14418 15.4038 9.09293 16.5006 10.0705 18.1006C10.3295 18.5264 10.8021 19.0168 11.4366 19.52C11.7539 19.7716 11.8056 20.2297 11.5532 20.5458C11.4107 20.7264 11.1971 20.8168 10.9834 20.8168L10.977 20.8232Z" fill="#010101"/>
<path d="M52.5036 17.4819C51.7914 17.4819 51.0987 17.1206 50.7037 16.4754L43.4396 4.48825C43.1483 4.01083 43.0641 3.44953 43.2001 2.90759C43.336 2.36565 43.6727 1.90759 44.1518 1.61726L46.2689 0.346289C46.748 0.0559646 47.3112 -0.0279037 47.8551 0.107581C48.3989 0.243065 48.8586 0.578552 49.1499 1.05597L56.414 13.0431C57.0097 14.0302 56.6924 15.3206 55.7019 15.9141L53.5848 17.1851C53.2481 17.3915 52.8726 17.4883 52.5036 17.4883V17.4819ZM47.3501 1.50114C47.2336 1.50114 47.1235 1.5334 47.0199 1.59146L44.9028 2.86243C44.7604 2.95275 44.6568 3.08824 44.6115 3.25599C44.5726 3.41728 44.5985 3.59147 44.6827 3.7334L51.9468 15.7206C52.1281 16.0173 52.523 16.1141 52.8208 15.9335L54.9379 14.6625C55.2357 14.4818 55.3328 14.0883 55.1516 13.7915L47.8874 1.80437C47.7968 1.66243 47.6609 1.5592 47.4925 1.51403C47.4407 1.50113 47.3889 1.49468 47.3371 1.49468L47.3501 1.50114Z" fill="#010101"/>
<path d="M29.8508 12.3519C29.6048 12.3519 29.3587 12.2293 29.2228 11.9971C29.0156 11.6551 29.1257 11.2035 29.4688 10.9971L31.3528 9.86157C31.6959 9.65512 32.1491 9.7648 32.3563 10.1067C32.5635 10.4487 32.4534 10.9003 32.1103 11.1067L30.2263 12.2422C30.1097 12.3132 29.9803 12.3455 29.8508 12.3455V12.3519Z" fill="#010101"/>
<path d="M23.3569 11.9591C21.9778 11.9591 20.6377 11.2559 19.8931 10.0237C19.5824 9.50752 19.5047 8.88172 19.6795 8.30108C19.8543 7.72688 20.2751 7.24945 20.8254 6.99783L28.1996 3.60426C28.8082 3.32039 29.4815 3.24298 30.1419 3.37201L37.665 4.84298C37.7103 4.84944 41.4783 5.60428 43.4853 4.39782C43.8284 4.19137 44.2816 4.30105 44.4888 4.64298C44.696 4.98492 44.5859 5.43653 44.2428 5.64298C41.7502 7.14621 37.5614 6.3075 37.3801 6.26879L29.8635 4.80428C29.5074 4.73331 29.1448 4.77847 28.8146 4.92686L21.4405 8.32043C21.2657 8.39785 21.1362 8.54623 21.0779 8.73333C21.0196 8.92042 21.0455 9.10752 21.1426 9.27526C21.7965 10.3527 23.1691 10.7979 24.3345 10.3075L28.0118 8.75914C28.1737 8.69462 28.3485 8.68171 28.5168 8.73333L31.9352 9.8043C32.3172 9.92688 32.5309 10.3333 32.4143 10.7204C32.2913 11.1011 31.8835 11.3204 31.495 11.1979L28.3356 10.2043L24.9042 11.6495C24.3992 11.8624 23.8748 11.9656 23.3504 11.9656L23.3569 11.9591Z" fill="#010101"/>
<path d="M44.3 22.6105C44.054 22.6105 43.808 22.4879 43.672 22.2556C43.4648 21.9137 43.5749 21.4621 43.918 21.2556L44.6626 20.8104C45.2129 20.4298 46.7019 19.2556 47.2264 18.2104C48.0745 16.533 49.9261 15.2878 50.0038 15.2362C50.3405 15.0104 50.7937 15.1007 51.0203 15.4362C51.2469 15.7717 51.1562 16.2233 50.8196 16.4491C50.7807 16.4749 49.201 17.5524 48.5342 18.8685C47.7249 20.4814 45.569 21.9653 45.4718 22.0298C45.4589 22.0363 45.4459 22.0427 45.433 22.0556L44.669 22.5137C44.5525 22.5847 44.423 22.6169 44.2935 22.6169L44.3 22.6105Z" fill="#010101"/>
<path d="M16.1256 24.4748C16.035 24.4748 15.9444 24.4748 15.8537 24.4619C15.1156 24.3909 14.4553 24.0361 13.9891 23.4683C13.0245 22.2941 13.1928 20.5522 14.3711 19.5909L16.3781 17.9522C16.9479 17.4877 17.673 17.2683 18.4046 17.3393C19.1426 17.4102 19.803 17.7651 20.2691 18.3328C20.7353 18.9006 20.9554 19.6167 20.8842 20.3522C20.813 21.0877 20.4569 21.7458 19.8872 22.2103L17.8801 23.849C17.3816 24.2554 16.7666 24.4748 16.1321 24.4748H16.1256ZM18.1197 18.7844C17.8219 18.7844 17.5305 18.8877 17.2975 19.0812L15.2904 20.7199C14.7337 21.1716 14.656 21.9974 15.1092 22.5522C15.5624 23.107 16.3911 23.1845 16.9414 22.7329L18.9484 21.0941C19.2203 20.8748 19.3822 20.5651 19.421 20.2167C19.4534 19.8683 19.3498 19.5328 19.1297 19.2683C18.9096 18.9974 18.5988 18.8361 18.2492 18.7973C18.2039 18.7973 18.165 18.7973 18.1197 18.7973V18.7844Z" fill="#010101"/>
<path d="M18.0423 28.1519C17.2394 28.1519 16.4496 27.81 15.8993 27.1455C14.9346 25.9713 15.103 24.2293 16.2813 23.268L19.609 20.5454C20.1788 20.0809 20.9039 19.8616 21.6355 19.9325C22.3735 20.0035 23.0339 20.3583 23.5001 20.9261C23.9662 21.4938 24.1863 22.2099 24.1151 22.9454C24.0439 23.6809 23.6878 24.339 23.1181 24.8035L19.7903 27.5261C19.2788 27.9455 18.6573 28.1519 18.0358 28.1519H18.0423ZM21.37 21.3712C21.0722 21.3712 20.7809 21.4745 20.5478 21.668L17.22 24.3906C16.6632 24.8487 16.5856 25.668 17.0387 26.2229C17.4919 26.7777 18.3206 26.8551 18.8774 26.4035L22.2052 23.6809C22.4771 23.4616 22.639 23.1519 22.6778 22.8035C22.7102 22.4551 22.6066 22.1196 22.3865 21.8551C22.1664 21.5841 21.8556 21.4229 21.506 21.3841C21.4607 21.3841 21.4218 21.3841 21.3765 21.3841L21.37 21.3712Z" fill="#010101"/>
<path d="M21.0655 30.9265C20.9748 30.9265 20.8842 30.9265 20.7936 30.9136C20.0555 30.8427 19.3951 30.4878 18.929 29.9201C18.4628 29.3523 18.2427 28.6362 18.3139 27.9007C18.3851 27.1652 18.7412 26.5072 19.311 26.0426L21.7647 24.0362C22.3344 23.5716 23.0531 23.3523 23.7911 23.4233C24.5292 23.4942 25.1896 23.8491 25.6557 24.4168C26.1219 24.9846 26.342 25.7007 26.2708 26.4362C26.1996 27.1717 25.8435 27.8297 25.2737 28.2943L22.82 30.3007C22.3215 30.7072 21.7064 30.9265 21.072 30.9265H21.0655ZM23.5127 24.8684C23.2149 24.8684 22.9236 24.9717 22.6905 25.1652L20.2368 27.1717C19.68 27.6233 19.6023 28.4491 20.0555 28.9975C20.2756 29.2684 20.5864 29.4297 20.936 29.4685C21.2856 29.5007 21.6223 29.3975 21.8877 29.1781L24.3415 27.1717C24.8982 26.7201 24.9759 25.8942 24.5227 25.3458C24.3026 25.0749 23.9919 24.9136 23.6422 24.8749C23.5969 24.8749 23.5581 24.8684 23.5127 24.8684Z" fill="#010101"/>
<path d="M23.875 33.8811C23.7844 33.8811 23.6938 33.8811 23.6031 33.8682C22.8651 33.7973 22.2047 33.4424 21.7386 32.8747C21.2724 32.3069 21.0523 31.5908 21.1235 30.8553C21.1947 30.1198 21.5508 29.4618 22.1205 28.9972L24.1211 27.3585C25.2994 26.3972 27.0474 26.565 28.0121 27.7392C28.4783 28.3069 28.6984 29.023 28.6272 29.7585C28.5559 30.494 28.1999 31.1521 27.6301 31.6166L25.6231 33.2553C25.1246 33.6618 24.5095 33.8811 23.875 33.8811ZM25.8756 28.1843C25.5843 28.1843 25.2929 28.2811 25.0469 28.4811L23.0463 30.1198C22.7744 30.3392 22.6126 30.6489 22.5737 30.9973C22.5413 31.3392 22.6449 31.6811 22.8651 31.9457C23.0852 32.2166 23.396 32.3779 23.7456 32.4166C24.0887 32.4553 24.4318 32.3457 24.6973 32.1263L26.7043 30.4876C26.9762 30.2682 27.1381 29.9585 27.1769 29.6102C27.2093 29.2618 27.1057 28.9263 26.8856 28.6618C26.6266 28.3521 26.2511 28.1843 25.8756 28.1843Z" fill="#010101"/>
</svg>
