<svg width="41" height="38" viewBox="0 0 41 38" fill="none" xmlns="http://www.w3.org/2000/svg">
<path d="M8.26424 37.7811C7.82122 37.7811 7.38444 37.6629 6.99133 37.4204C6.26128 36.9727 5.8245 36.2017 5.8245 35.3436V18.6422H0.558167L0.533203 14.5508L20.4255 0.0878906L27.7197 5.34206V2.40097H33.7286V9.84385L40.4987 14.5384L40.4862 18.6609H35.2074V35.3498C35.2074 36.2017 34.7706 36.9789 34.0406 37.4266C33.3105 37.8743 32.4182 37.9054 31.657 37.5199L20.5191 31.8616L9.38116 37.5199C9.03174 37.7002 8.65111 37.7873 8.27049 37.7873L8.26424 37.7811ZM2.04323 17.1562H7.32204V35.3498C7.32204 35.6856 7.48427 35.9779 7.7713 36.152C8.05833 36.3261 8.39528 36.3385 8.69479 36.1893L20.5128 30.1827L32.3309 36.1893C32.6304 36.3447 32.9673 36.3261 33.2544 36.152C33.5414 35.9779 33.7036 35.6856 33.7036 35.3498V17.1686H38.9887V15.3156L32.2248 10.6211V3.89327H29.211V8.25828L20.4255 1.9284L2.03075 15.3032L2.04323 17.1499V17.1562Z" fill="#010101"/>
<path d="M32.7613 37.8611C32.3682 37.8611 31.9813 37.7678 31.6132 37.5875L20.5064 31.9478L9.39972 37.5875C8.626 37.9792 7.67755 37.9419 6.94127 37.4942C6.18626 37.0341 5.73698 36.232 5.73698 35.3552V18.7285H0.470663L0.439453 14.5189L0.470663 14.494L20.4129 0L27.626 5.19821V2.33173H33.7908V9.81193L40.561 14.5065V14.55L40.5485 18.7471H35.2697V35.3552C35.2697 36.2382 34.8204 37.0341 34.0654 37.4942C33.6598 37.7429 33.2043 37.8673 32.7488 37.8673L32.7613 37.8611ZM0.632883 18.5668H5.89922V35.349C5.89922 36.176 6.32352 36.9284 7.02861 37.3574C7.72122 37.7802 8.61351 37.8175 9.33732 37.4445L20.5127 31.7675L20.5501 31.7861L31.6881 37.4445C32.4243 37.8175 33.2917 37.7864 33.9967 37.3574C34.7018 36.9284 35.1261 36.176 35.1261 35.349V18.5854H40.405L40.4174 14.5811L33.6473 9.88654V2.48097H27.7945V5.49668L20.4253 0.18655L0.607919 14.5935L0.632883 18.573V18.5668ZM8.26409 36.3688C8.08313 36.3688 7.89594 36.319 7.73371 36.2133C7.42172 36.0268 7.24701 35.7097 7.24701 35.3428V17.2237H1.9682L1.9557 15.2588L1.98691 15.234L20.4253 1.82808L29.136 8.102V3.8116H32.3058V10.5767L39.0759 15.2713V17.2424H33.7846V35.349C33.7846 35.7096 33.6036 36.0268 33.2979 36.2195C32.9859 36.4061 32.624 36.4247 32.2995 36.2568L20.5127 30.269L8.72582 36.2568C8.57607 36.3315 8.42007 36.3688 8.25784 36.3688H8.26409ZM2.12419 17.0745H7.403V35.349C7.403 35.6537 7.55276 35.9211 7.81483 36.0827C8.07689 36.2444 8.38264 36.2568 8.65719 36.1138L20.5127 30.0949L20.5501 30.1135L32.3682 36.12C32.6427 36.2631 32.9485 36.2506 33.2105 36.0889C33.4726 35.9273 33.6224 35.6599 33.6224 35.3552V17.0931H38.9074V15.3583L32.1435 10.67V3.9795H29.2858V8.4191L29.161 8.33206L20.4191 2.0395L2.09923 15.3583L2.1117 17.0869L2.12419 17.0745Z" fill="#231F20"/>
<path d="M20.5127 31.8736L20.1695 31.6932C20.0572 31.6373 9.21881 25.923 12.3075 19.5309C12.9065 18.2936 13.7676 17.4728 14.8783 17.0997C17.0372 16.366 19.4395 17.5474 20.5127 18.0884C21.5797 17.5536 23.9883 16.3722 26.1472 17.1059C27.2579 17.4852 28.1252 18.2998 28.718 19.5372C31.8004 25.923 20.9682 31.6373 20.8559 31.6932L20.5127 31.8736ZM16.3633 18.362C16.0201 18.362 15.6832 18.4055 15.365 18.5174C14.6349 18.7661 14.0796 19.3071 13.6553 20.1838C11.4963 24.6545 18.8093 29.1998 20.5127 30.1823C22.2162 29.1998 29.5229 24.6545 27.3702 20.19C26.9459 19.3133 26.3906 18.7724 25.6668 18.5236C24.0694 17.9827 22.0227 19.0149 21.1429 19.4501C21.0182 19.5123 20.9121 19.5683 20.831 19.6056L20.5127 19.7548L20.1945 19.6056C20.1134 19.5683 20.0136 19.5185 19.8888 19.4563C19.1899 19.1019 17.7298 18.3744 16.3571 18.3744L16.3633 18.362Z" fill="#010101"/>
<path d="M20.512 31.9602L20.1313 31.7612C20.019 31.7053 9.11195 25.9661 12.2318 19.4994C12.8371 18.2434 13.7169 17.4102 14.8525 17.0247C17.0489 16.2785 19.4574 17.4662 20.512 17.9947C21.5727 17.4662 23.9812 16.2785 26.1714 17.0247C27.3008 17.4102 28.1806 18.2372 28.7921 19.4994C31.9119 25.9661 21.0049 31.7053 20.8988 31.7612L20.5182 31.9602H20.512ZM16.3688 16.9438C15.8821 16.9438 15.3891 17.0123 14.9087 17.1739C13.8167 17.547 12.9681 18.3491 12.3816 19.5678C9.32411 25.8977 20.1001 31.5685 20.2124 31.6244L20.5244 31.7861L20.8364 31.6244C20.9425 31.5685 31.7185 25.8977 28.661 19.5678C28.0745 18.3491 27.2197 17.547 26.1339 17.1739C23.9812 16.4402 21.5852 17.6403 20.5619 18.1564L20.5244 18.175L20.487 18.1564C19.6945 17.7584 18.0722 16.9438 16.375 16.9438H16.3688ZM20.512 30.2689L20.4745 30.244C19.5947 29.7342 17.3546 28.36 15.5826 26.5381C13.33 24.2251 12.6561 22.0737 13.5858 20.1461C14.0164 19.2507 14.5904 18.6911 15.3392 18.4362C15.645 18.3305 15.9881 18.2807 16.3625 18.2807C17.754 18.2807 19.2203 19.0206 19.9254 19.3751C20.0502 19.4372 20.15 19.487 20.2312 19.5243L20.512 19.6549L20.799 19.5243C20.8801 19.487 20.9862 19.4372 21.111 19.3751C21.997 18.9336 24.0686 17.889 25.6909 18.4424C26.4397 18.6973 27.0138 19.2569 27.4443 20.1461C28.374 22.0737 27.7001 24.2251 25.4476 26.5381C23.6755 28.36 21.4354 29.7342 20.5556 30.244L20.5182 30.2689H20.512ZM16.3625 18.4362C16.0069 18.4362 15.6824 18.4859 15.3891 18.5854C14.684 18.8217 14.1412 19.3564 13.7294 20.2145C12.8308 22.0799 13.4923 24.1691 15.6949 26.4324C17.4295 28.2108 19.6134 29.5663 20.5182 30.0886C21.4167 29.5663 23.6006 28.2108 25.3353 26.4324C27.5379 24.1691 28.1993 22.0799 27.3008 20.2145C26.889 19.3564 26.3461 18.8279 25.641 18.5854C24.0748 18.0569 22.0469 19.0766 21.1796 19.5119C21.0548 19.574 20.9487 19.63 20.8676 19.6673L20.5182 19.829L20.1688 19.6673C20.0876 19.63 19.9816 19.5803 19.8568 19.5181C19.1642 19.1699 17.7165 18.4424 16.3625 18.4424V18.4362Z" fill="#231F20"/>
</svg>
