<svg width="167" height="32" viewBox="0 0 167 32" fill="none" xmlns="http://www.w3.org/2000/svg">
<g id="Group 10">
<g id="Group 4">
<path id="HOMES" fill-rule="evenodd" clip-rule="evenodd" d="M126.945 25.6514C126.108 26.172 125.148 26.4323 124.065 26.4323C122.995 26.4323 122.039 26.175 121.199 25.6603C120.359 25.1455 119.708 24.4105 119.247 23.455C118.785 22.4995 118.551 21.4006 118.545 20.1581V19.5192C118.545 18.2472 118.775 17.1275 119.233 16.1602C119.692 15.1929 120.34 14.4504 121.177 13.9328C122.014 13.4151 122.971 13.1562 124.048 13.1562C125.124 13.1562 126.081 13.4151 126.918 13.9328C127.756 14.4504 128.403 15.1929 128.862 16.1602C129.32 17.1275 129.55 18.2442 129.55 19.5103V20.0871C129.55 21.3591 129.325 22.4744 128.875 23.4328C128.426 24.3912 127.782 25.1308 126.945 25.6514ZM108.757 20.7172V26.2548H106.095V13.3337H108.757V18.5696H113.949V13.3337H116.611V26.2548H113.949V20.7172H108.757ZM124.065 24.2492C123.154 24.2492 122.456 23.8854 121.971 23.1577C121.486 22.43 121.243 21.4065 121.243 20.0871V19.4571C121.249 18.1141 121.495 17.095 121.98 16.3998C122.465 15.7047 123.154 15.3571 124.048 15.3571C124.947 15.3571 125.639 15.7091 126.124 16.4132C126.609 17.1172 126.852 18.1466 126.852 19.5014V20.1315C126.846 21.4745 126.603 22.4965 126.124 23.1976C125.645 23.8987 124.959 24.2492 124.065 24.2492ZM134.147 22.7228V26.2548H131.484V13.3337H134.963L138.282 22.7051L141.583 13.3337H145.08V26.2548H142.409V22.7228L142.675 16.6261L139.187 26.2548H137.359L133.88 16.635L134.147 22.7228ZM156.066 26.2548V24.1161H150.067V20.6551H155.179V18.5696H150.067V15.4902H156.049V13.3337H147.405V26.2548H156.066ZM165.731 25.4783C164.885 26.1143 163.746 26.4323 162.314 26.4323C161.32 26.4323 160.415 26.2504 159.598 25.8866C158.782 25.5227 158.159 25.0243 157.73 24.3912C157.301 23.7582 157.087 23.0246 157.087 22.1904H159.758C159.758 23.6162 160.61 24.3291 162.314 24.3291C162.947 24.3291 163.441 24.2004 163.796 23.9431C164.151 23.6857 164.328 23.3263 164.328 22.8648C164.328 22.3619 164.151 21.9759 163.796 21.7067C163.441 21.4375 162.802 21.1536 161.879 20.8548C160.956 20.556 160.226 20.2617 159.687 19.9718C158.22 19.179 157.486 18.1111 157.486 16.7681C157.486 16.07 157.683 15.4473 158.076 14.9001C158.47 14.3528 159.035 13.9254 159.771 13.6177C160.508 13.3101 161.335 13.1562 162.252 13.1562C163.175 13.1562 163.997 13.3234 164.719 13.6577C165.441 13.9919 166.001 14.4637 166.401 15.0731C166.8 15.6825 167 16.3747 167 17.1497H164.337C164.337 16.5581 164.151 16.0981 163.778 15.7698C163.406 15.4414 162.882 15.2772 162.207 15.2772C161.557 15.2772 161.051 15.4148 160.69 15.6899C160.329 15.965 160.149 16.3274 160.149 16.777C160.149 17.1971 160.36 17.5491 160.783 17.8331C161.206 18.117 161.829 18.3833 162.651 18.6317C164.166 19.0873 165.269 19.6523 165.961 20.3268C166.654 21.0012 167 21.8413 167 22.8471C167 23.9653 166.577 24.8423 165.731 25.4783Z" fill="#213367"/>
<g id="Group 31">
<g id="Group 29">
<path id="Fill 9" fill-rule="evenodd" clip-rule="evenodd" d="M71.271 13.2578C67.6959 13.2578 64.7979 16.1506 64.7979 19.7192C64.7979 23.2878 67.6959 26.181 71.271 26.181C74.8461 26.181 77.7441 23.2878 77.7441 19.7192C77.7441 16.1506 74.8461 13.2578 71.271 13.2578ZM71.271 23.5961C69.1257 23.5961 67.387 21.8606 67.387 19.7192C67.387 17.5782 69.1257 15.8423 71.271 15.8423C73.4159 15.8423 75.1549 17.5782 75.1549 19.7192C75.1549 21.8606 73.4159 23.5961 71.271 23.5961Z" fill="#223368"/>
<path id="Fill 11" fill-rule="evenodd" clip-rule="evenodd" d="M81.6029 14.9126L79.0137 12.3281V15.9833V26.1786H81.6029V18.5678L87.5669 24.5217V20.8662L81.6029 14.9126Z" fill="#223368"/>
<g id="Group 15">
<mask id="mask0_3277_12864" style="mask-type:luminance" maskUnits="userSpaceOnUse" x="91" y="13" width="9" height="14">
<path id="Clip 14" fill-rule="evenodd" clip-rule="evenodd" d="M91.4141 13.2578H99.916V26.1806H91.4141V13.2578Z" fill="white"/>
</mask>
<g mask="url(#mask0_3277_12864)">
<path id="Fill 13" fill-rule="evenodd" clip-rule="evenodd" d="M99.9162 15.8423V13.2578H94.0036H91.4141V15.8423V18.4268V21.0116V23.5961V26.1806H94.0036H99.9162V23.5961H94.0036V21.0116H99.0555V18.4268H94.0036V15.8423H99.9162Z" fill="#223368"/>
</g>
</g>
<path id="Fill 16" fill-rule="evenodd" clip-rule="evenodd" d="M87.5673 13.2578H87.5666V13.2694C87.5601 14.4838 86.5728 15.4666 85.3545 15.4666V18.0507C86.1525 18.0507 86.904 17.855 87.5666 17.5111V20.8686H87.5669H87.5666V24.5238L90.1561 27.1083V23.4527V22.9207V13.2578H87.5673Z" fill="#EA2127"/>
<g id="Group 20">
<mask id="mask1_3277_12864" style="mask-type:luminance" maskUnits="userSpaceOnUse" x="23" y="0" width="33" height="14">
<path id="Clip 19" fill-rule="evenodd" clip-rule="evenodd" d="M23.2451 0.96875H55.0006V13.3477H23.2451V0.96875Z" fill="white"/>
</mask>
<g mask="url(#mask1_3277_12864)">
<path id="Fill 18" fill-rule="evenodd" clip-rule="evenodd" d="M36.1444 4.56883L30.9355 8.11622C42.2093 8.44164 49.8719 4.84942 49.8719 4.84942C41.7005 8.81838 33.0739 9.17527 29.4522 9.1236L23.2451 13.3478C23.2451 13.3478 42.6498 12.8674 55.0006 0.96875C55.0006 0.96875 47.366 6.61713 36.1444 4.56883Z" fill="#EA2127"/>
</g>
</g>
<path id="Fill 21" fill-rule="evenodd" clip-rule="evenodd" d="M59.4874 13.2701H58.9797C58.9797 13.2701 59.2098 13.6116 58.8882 14.0828L54.5864 19.9235L55.104 14.3647C55.2065 13.6513 55.7711 13.266 55.7711 13.266H53.9354V13.2701H49.3045L44.4011 19.9235L44.918 14.4003C44.9201 14.3942 44.9252 14.388 44.9262 14.3839C45.0226 13.6622 45.5954 13.2732 45.5954 13.2732H45.0236V13.2711L39.1284 13.2701V13.2732C38.8209 13.2581 24.0493 12.5748 21.8368 16.5071C22.7466 14.683 23.3619 13.3512 23.4017 13.2944H12.6785C12.7899 13.3269 13.382 13.6482 13.1821 14.2046V14.2066C12.6237 16.1078 11.261 20.5158 9.74312 23.7833C7.75076 28.0605 3.26691 29.6263 0.189576 30.7179C-0.0928927 30.8182 -0.0479856 31.0269 0.246481 31.0279C7.81897 31.0745 14.035 30.4705 18.7389 22.3362C19.8297 20.4494 20.8996 18.3864 21.7395 16.7049C21.6856 16.8295 21.6421 16.9574 21.6095 17.095C20.6439 21.4828 28.8581 21.763 28.7374 22.8125C28.6288 23.7367 23.7346 23.4531 20.5057 22.3916C20.4886 22.3858 20.4752 22.3776 20.4632 22.3714C19.8427 22.1678 19.5808 21.8037 19.5808 21.8037L19.6083 22.0563L19.6052 22.0542C19.6052 22.0542 19.6103 22.0706 19.6124 22.0919L19.7423 23.2625C19.8722 24.4967 20.0426 26.235 20.0426 26.235C20.0426 26.235 37.1536 28.3938 37.4693 22.8429C37.7068 18.6427 29.4662 18.1349 29.5578 17.2148C29.6421 16.3511 33.6525 16.2426 36.0854 16.6036C36.0926 16.6057 36.0988 16.6077 36.1056 16.6077C37.1933 16.7788 37.3476 17.3667 37.3476 17.3667L37.5252 16.9574H37.5282C37.5303 16.9379 38.9995 13.5863 39.1274 13.2944L38.0236 25.0675V25.0682C37.9262 25.7912 37.3548 26.1809 37.3548 26.1809H38.508L43.8132 26.1843L48.7235 19.5221L48.2027 25.0777C48.1023 25.7943 47.5367 26.1809 47.5367 26.1809H48.1002V26.183L53.9971 26.1792L63.5099 13.2711L59.4874 13.2701Z" fill="#223368"/>
</g>
</g>
</g>
</g>
</svg>
