<svg width="45" height="42" viewBox="0 0 45 42" fill="none" xmlns="http://www.w3.org/2000/svg">
<path d="M1.90068 38.595C1.62305 38.595 1.35174 38.5133 1.11828 38.3561C0.746003 38.1046 0.512541 37.6833 0.506232 37.2306L0.405273 31.9615C0.405273 31.8357 0.436818 31.7163 0.499916 31.6157L1.73662 29.6539C1.81234 29.5345 1.92592 29.4464 2.05842 29.3961L4.34887 28.5724L4.10278 26.158C4.07123 25.8499 4.26684 25.5669 4.56971 25.4852L7.15671 24.7935L6.76549 21.964C6.72763 21.6685 6.898 21.3856 7.18194 21.285L10.034 20.2727L9.58595 17.5186C9.56071 17.3677 9.59227 17.2105 9.67429 17.0848L10.8542 15.2111C11.2076 14.6514 11.2643 13.9535 10.993 13.3562C9.71846 10.489 9.95824 7.20049 11.6303 4.54708C14.394 0.164545 20.2242 -1.16215 24.6284 1.59187C29.0073 4.33331 30.3576 9.94195 27.7075 14.3622C26.0481 17.1288 23.1204 18.8391 19.8835 18.9334C19.2399 18.9522 18.6468 19.2981 18.2934 19.864L8.60163 35.2311C8.10947 36.0108 7.35861 36.6207 6.49418 36.9477L2.41177 38.4944C2.25402 38.5573 2.08366 38.5825 1.91961 38.5825L1.90068 38.595ZM1.66722 32.125L1.76818 37.2055C1.76818 37.2621 1.79973 37.2935 1.82497 37.3124C1.85021 37.3312 1.88807 37.3438 1.94485 37.3249L6.03358 35.7781C6.64562 35.5455 7.16932 35.1179 7.51635 34.5646L17.2081 19.1975C17.7886 18.2795 18.7666 17.7073 19.833 17.6758C22.6408 17.5941 25.171 16.1165 26.6097 13.7146C28.9064 9.88536 27.7391 5.02496 23.9469 2.65449C20.1359 0.265161 15.0881 1.41582 12.6904 5.21359C11.2454 7.50861 11.0372 10.3632 12.1414 12.8406C12.5768 13.8215 12.4947 14.9595 11.9142 15.8775L10.8605 17.5501L11.359 20.587C11.4095 20.8888 11.2328 21.1781 10.9489 21.2787L8.08424 22.2973L8.48174 25.1708C8.52591 25.4852 8.32401 25.7807 8.02114 25.8624L5.41521 26.5604L5.65499 28.9308C5.68654 29.2201 5.51618 29.4842 5.24486 29.5848L2.69571 30.5028L1.67354 32.1187L1.66722 32.125Z" fill="#010101"/>
<path d="M1.9012 38.7519C1.59202 38.7519 1.28915 38.6576 1.03045 38.4878C0.614006 38.2049 0.361625 37.7396 0.349005 37.2366L0.248047 31.9675C0.248047 31.8103 0.285907 31.6656 0.367934 31.5336L1.60464 29.5718C1.69929 29.4272 1.8381 29.3078 2.00216 29.2512L4.17271 28.4652L3.93925 26.1765C3.9014 25.7929 4.14115 25.4408 4.51974 25.3402L6.97424 24.6863L6.60197 21.9951C6.55149 21.6304 6.76601 21.2721 7.11935 21.1463L9.84517 20.178L9.41611 17.5497C9.38456 17.3611 9.42242 17.1662 9.52968 17.0027L10.7159 15.129C11.044 14.6134 11.0945 13.972 10.8484 13.4187C9.55492 10.5075 9.7947 7.15615 11.492 4.46501C14.3062 0.00702212 20.231 -1.33855 24.7046 1.45948C29.1593 4.24494 30.5285 9.95418 27.8343 14.4436C26.1433 17.2542 23.1714 18.9959 19.8777 19.0902C19.2909 19.1091 18.7419 19.4298 18.4138 19.9516L8.72203 35.3188C8.21094 36.1299 7.43485 36.765 6.53887 37.0982L2.45646 38.645C2.27979 38.7142 2.09681 38.7456 1.90751 38.7456L1.9012 38.7519ZM19.619 0.315116C16.5335 0.315116 13.5174 1.84303 11.757 4.63477C10.1165 7.23788 9.88303 10.476 11.1324 13.2929C11.4226 13.9406 11.3658 14.6888 10.9809 15.2987L9.801 17.1725C9.7379 17.2668 9.71898 17.3862 9.73791 17.4994L10.2111 20.3855L7.23924 21.4418C7.03102 21.5173 6.89852 21.7311 6.93007 21.9511L7.3402 24.9189L4.6207 25.6483C4.39355 25.7112 4.24843 25.9187 4.27367 26.1513L4.53237 28.6853L2.12836 29.553C2.0274 29.5907 1.94537 29.6599 1.88859 29.7479L0.651861 31.7097C0.601383 31.7851 0.576147 31.8794 0.576147 31.9738L0.677105 37.2429C0.683415 37.6453 0.885337 38.0162 1.21975 38.2363C1.54786 38.4564 1.97691 38.5067 2.34918 38.3683L6.43791 36.8216C7.2708 36.5072 7.99011 35.9162 8.46965 35.1679L18.1614 19.8007C18.5463 19.1908 19.1899 18.8136 19.884 18.7947C23.0704 18.7004 25.9413 17.0216 27.5756 14.299C30.1878 9.95417 28.8564 4.43356 24.5532 1.74242C23.0262 0.786688 21.3226 0.327685 19.6379 0.327685L19.619 0.315116ZM1.89488 37.4943C1.83809 37.4943 1.78131 37.4755 1.73714 37.4441C1.65511 37.3875 1.61095 37.3057 1.61095 37.2114L1.51 32.0869L2.58266 30.3829L5.18227 29.4461C5.38419 29.3706 5.51669 29.1694 5.49145 28.9557L5.23906 26.4531L7.97117 25.7238C8.19832 25.6609 8.34977 25.4408 8.31822 25.2019L7.90807 22.2026L10.8926 21.1463C11.1071 21.0709 11.2396 20.8508 11.2018 20.6244L10.697 17.5309L11.7823 15.808C12.3312 14.934 12.4132 13.8526 11.9968 12.922C10.8737 10.3943 11.0819 7.4831 12.5584 5.14407C15.0002 1.27084 20.149 0.101333 24.0295 2.53468C27.8974 4.95545 29.0899 9.91016 26.7427 13.8085C25.2725 16.2545 22.6918 17.7635 19.8335 17.8453C18.824 17.8767 17.8901 18.4174 17.3412 19.2914L7.64939 34.6586C7.28342 35.237 6.72816 35.6898 6.08456 35.935L1.99584 37.4818C1.95798 37.4944 1.92643 37.5006 1.89488 37.5006V37.4943ZM1.8318 32.1687L1.92644 37.1611L5.97729 35.6332C6.55779 35.4131 7.05626 35.0044 7.38437 34.4825L17.0762 19.1154C17.6819 18.1471 18.7104 17.556 19.8272 17.5183C22.5782 17.4365 25.0643 15.9904 26.4714 13.6388C28.7239 9.88502 27.5756 5.11893 23.8591 2.79248C20.1238 0.453447 15.1706 1.57894 12.8171 5.30127C11.3974 7.55227 11.1955 10.3503 12.2807 12.7836C12.7414 13.8148 12.6467 15.0032 12.041 15.9652L11.0188 17.5875L11.5046 20.5678C11.5677 20.9451 11.3469 21.3098 10.9935 21.4355L8.2488 22.4101L8.62739 25.1579C8.68418 25.5477 8.43179 25.9187 8.0532 26.0256L5.57979 26.6858L5.80693 28.9242C5.84479 29.2826 5.63026 29.6222 5.28953 29.7416L2.79719 30.6408L1.8318 32.175V32.1687Z" fill="#231F20"/>
<path d="M21.1082 8.93613C21.1082 8.93613 21.0578 8.93614 21.0262 8.92356C20.736 8.84811 20.4646 8.72864 20.2122 8.57145C18.843 7.71632 18.4329 5.91173 19.291 4.5473C20.1491 3.18287 21.9664 2.77417 23.3293 3.6293C24.3767 4.28951 24.9004 5.54077 24.6291 6.74172C24.5912 6.91149 24.4272 7.01839 24.2505 6.98066C24.0801 6.94293 23.9729 6.77316 24.0107 6.60339C24.2253 5.66024 23.8151 4.67935 22.9885 4.16376C21.9159 3.49097 20.4899 3.81793 19.8147 4.88684C19.1396 5.95575 19.4677 7.37679 20.5404 8.04329C20.736 8.16904 20.9505 8.26334 21.1776 8.31993C21.348 8.36394 21.449 8.53372 21.4048 8.70349C21.3669 8.84182 21.2407 8.93613 21.1019 8.93613H21.1082Z" fill="#010101"/>
<path d="M21.1079 9.09278C21.0637 9.09278 21.0258 9.09278 20.988 9.07392C20.6851 8.99218 20.3949 8.86642 20.1299 8.70294C19.4358 8.26909 18.9499 7.58374 18.767 6.7852C18.584 5.98037 18.7228 5.15668 19.1645 4.46503C20.0731 3.03143 21.9786 2.59129 23.4236 3.49672C24.5278 4.18837 25.083 5.50879 24.7928 6.7789C24.736 7.0367 24.4836 7.1939 24.2312 7.13731C24.105 7.11216 24.004 7.03669 23.9346 6.9298C23.8652 6.82291 23.8463 6.69715 23.8715 6.5714C24.0734 5.69112 23.6885 4.7794 22.9188 4.29525C21.9218 3.66648 20.5905 3.97458 19.9658 4.96804C19.3348 5.96779 19.6377 7.28191 20.6409 7.91068C20.8239 8.03015 21.0258 8.11189 21.2341 8.16848C21.354 8.19992 21.4612 8.27538 21.5243 8.38856C21.5874 8.49545 21.6063 8.62749 21.5748 8.74696C21.518 8.95446 21.335 9.09907 21.1205 9.09907L21.1079 9.09278ZM21.783 3.33953C20.8618 3.33953 19.9532 3.79852 19.4295 4.6285C19.0383 5.25098 18.9121 5.99294 19.0761 6.71602C19.2402 7.43911 19.6756 8.04901 20.3002 8.43885C20.54 8.58976 20.7987 8.70293 21.07 8.7721C21.152 8.79725 21.2404 8.74066 21.2656 8.65892C21.2782 8.6212 21.2656 8.57718 21.2467 8.53946C21.2278 8.50173 21.1899 8.47658 21.152 8.46401C20.9123 8.40113 20.6788 8.30053 20.4706 8.16848C19.3222 7.45168 18.9752 5.93635 19.6945 4.79199C20.4138 3.64762 21.9344 3.30179 23.0828 4.01859C23.9599 4.57191 24.4016 5.61568 24.1744 6.62801C24.1681 6.67202 24.1744 6.70973 24.1933 6.74745C24.2186 6.78518 24.2501 6.81034 24.2943 6.81663C24.3826 6.83549 24.4647 6.78519 24.4836 6.69716C24.7423 5.55909 24.2438 4.377 23.2532 3.75452C22.7989 3.46528 22.2878 3.33323 21.783 3.33323V3.33953Z" fill="#231F20"/>
<path d="M40.0749 41.6447H35.2858C34.5601 41.6447 33.9733 41.0599 33.9733 40.3368V33.873C33.9733 33.873 33.9481 33.8228 33.9228 33.8228H29.241C29.241 33.8228 29.1905 33.8479 29.1905 33.873V40.3368C29.1905 41.0599 28.6037 41.6447 27.8781 41.6447H23.3856C22.66 41.6447 22.0731 41.0599 22.0731 40.3368V30.7355L22.0227 30.6852H21.1961C20.3443 30.6852 19.5934 30.1696 19.2905 29.3773C18.9877 28.5788 19.2022 27.6985 19.8458 27.1389L24.9693 22.6118C25.228 22.3791 25.6255 22.4043 25.859 22.6621C26.0925 22.9199 26.0672 23.316 25.8085 23.5486L20.685 28.0758C20.3127 28.4027 20.4326 28.8114 20.4768 28.9309C20.5209 29.0504 20.7039 29.4277 21.2024 29.4277H22.0353C22.3823 29.4025 22.7167 29.5597 22.9628 29.8112C23.2089 30.0564 23.3477 30.3896 23.3477 30.7355V40.3368C23.3477 40.3368 23.373 40.3871 23.3982 40.3871H27.8907C27.8907 40.3871 27.9412 40.362 27.9412 40.3368V33.873C27.9412 33.1499 28.528 32.5652 29.2536 32.5652H33.9355C34.6611 32.5652 35.2479 33.1499 35.2479 33.873V40.3368C35.2479 40.3368 35.2731 40.3871 35.2984 40.3871H40.0875C40.0875 40.3871 40.138 40.362 40.138 40.3368V30.7355C40.138 30.3834 40.2768 30.0564 40.5228 29.8112C40.7689 29.566 41.097 29.4277 41.4504 29.4277H42.5861C43.0846 29.4277 43.2676 29.0441 43.3118 28.9309C43.3559 28.8114 43.4758 28.409 43.1035 28.0758L40.5418 25.8122C40.2641 25.567 40.1001 25.2086 40.1001 24.8313V19.6817C40.1001 19.6817 40.0748 19.6314 40.0496 19.6314H37.45C37.45 19.6314 37.3995 19.6565 37.3995 19.6817V20.1407C37.3995 20.6626 37.103 21.1153 36.6297 21.3354C36.1502 21.5491 35.6139 21.4674 35.2227 21.1216L33.519 19.6188C32.5978 18.8014 31.2033 18.8014 30.2758 19.6188L28.8435 20.8826C28.5848 21.1153 28.1873 21.0901 27.9538 20.8323C27.7204 20.5745 27.7456 20.1784 28.0043 19.9458L29.4366 18.6819C30.8374 17.4433 32.9511 17.4433 34.3519 18.6819L36.0555 20.1847L36.1376 20.147V19.688C36.1376 18.9649 36.7244 18.3801 37.45 18.3801H40.0496C40.7752 18.3801 41.362 18.9649 41.362 19.688V24.8376L43.9427 27.1326C44.58 27.6985 44.8009 28.5788 44.498 29.371C44.1951 30.1696 43.4443 30.6789 42.5924 30.6789H41.4567L41.4062 30.7292V40.3305C41.4062 41.0536 40.8194 41.6384 40.0938 41.6384L40.0749 41.6447Z" fill="#010101"/>
<path d="M40.074 41.8013H35.2849C34.4773 41.8013 33.8148 41.1474 33.8148 40.3362V33.9794H29.3538V40.3362C29.3538 41.1411 28.6976 41.8013 27.8836 41.8013H23.3911C22.5834 41.8013 21.9209 41.1474 21.9209 40.3362V30.8418H21.2016C20.2804 30.8418 19.4727 30.2885 19.1446 29.4333C18.8165 28.5782 19.05 27.6288 19.7377 27.0189L24.8613 22.4917C25.019 22.3534 25.2209 22.2842 25.4291 22.2968C25.6373 22.3094 25.8329 22.4037 25.9718 22.5609C26.1106 22.7181 26.18 22.9193 26.1674 23.1268C26.1547 23.3343 26.0601 23.5292 25.9024 23.6675L20.7788 28.1947C20.4886 28.4462 20.5643 28.7543 20.6085 28.8738C20.6526 28.9932 20.8041 29.2699 21.1827 29.2699H22.0155C22.3752 29.2447 22.7538 29.4019 23.0567 29.6974C23.3343 29.9741 23.4857 30.3388 23.4857 30.7349V40.2231H27.7574V33.8662C27.7574 33.0614 28.4136 32.4012 29.2276 32.4012H33.9094C34.7171 32.4012 35.3796 33.0551 35.3796 33.8662V40.2231H39.9479V30.7286C39.9479 30.3388 40.0993 29.9678 40.3769 29.6912C40.6545 29.4145 41.0205 29.2636 41.4117 29.2636H42.5475C42.9324 29.2636 43.0775 28.9869 43.128 28.8675C43.1658 28.7731 43.2605 28.4525 42.9576 28.1884L40.3958 25.9248C40.0804 25.6482 39.9037 25.2458 39.9037 24.8308V19.788H37.5249V20.1401C37.5249 20.7249 37.1905 21.2342 36.6605 21.4731C36.1241 21.712 35.5184 21.624 35.083 21.2342L33.3794 19.7314C32.515 18.9643 31.2088 18.9706 30.3507 19.7314L28.9184 20.9952C28.7607 21.1336 28.5524 21.2027 28.3442 21.1902C28.136 21.1776 27.9404 21.0833 27.8016 20.9261C27.6628 20.7689 27.5934 20.5677 27.606 20.3602C27.6186 20.1527 27.7133 19.9578 27.871 19.8194L29.3033 18.5556C30.7672 17.2666 32.9693 17.2666 34.4268 18.5556L35.9475 19.9012V19.6811C35.9475 18.8763 36.6037 18.2161 37.4176 18.2161H40.0173C40.8249 18.2161 41.4874 18.87 41.4874 19.6811V24.7616L44.0113 27.0126C44.6991 27.6225 44.9325 28.5657 44.6044 29.4271C44.2763 30.2822 43.475 30.8418 42.5538 30.8418H41.5316V40.3299C41.5316 41.1348 40.8754 41.795 40.0614 41.795L40.074 41.8013ZM29.2465 33.6713H33.9284C34.0419 33.6713 34.1366 33.7656 34.1366 33.8788V40.3425C34.1366 40.9776 34.654 41.4932 35.2913 41.4932H40.0804C40.7176 41.4932 41.235 40.9776 41.235 40.3425V30.6783L41.3738 30.54H42.5727C43.3614 30.54 44.0555 30.0684 44.3331 29.3327C44.6108 28.5971 44.4088 27.786 43.822 27.2641L41.1909 24.9188V19.7C41.1909 19.0649 40.6735 18.5493 40.0362 18.5493H37.4366C36.7993 18.5493 36.2819 19.0649 36.2819 19.7V20.2596L36.0106 20.3791L34.2312 18.8071C32.8872 17.625 30.8681 17.625 29.5241 18.8071L28.0918 20.0709C27.9972 20.1527 27.9404 20.2722 27.9341 20.3916C27.9278 20.5174 27.9656 20.6368 28.054 20.7312C28.136 20.8255 28.2496 20.8821 28.3758 20.8884C28.502 20.8946 28.6219 20.8569 28.7165 20.7689L30.1488 19.5051C31.1331 18.6373 32.6159 18.6373 33.6002 19.5051L35.3039 21.0078C35.6446 21.3096 36.1241 21.3851 36.5406 21.1964C36.957 21.0078 37.222 20.6054 37.222 20.1464V19.6874C37.222 19.5742 37.3167 19.4799 37.4303 19.4799H40.0299C40.1434 19.4799 40.2381 19.5742 40.2381 19.6874V24.837C40.2381 25.164 40.3769 25.4784 40.6293 25.6984L43.1911 27.962C43.5507 28.2764 43.557 28.6977 43.4434 28.9869C43.3362 29.2762 43.0459 29.5843 42.5727 29.5843H41.4433C41.1341 29.5843 40.8438 29.7037 40.6293 29.9175C40.4085 30.1376 40.2886 30.4205 40.2886 30.7286V40.3299C40.2886 40.4431 40.1939 40.5375 40.0804 40.5375H35.2913C35.1777 40.5375 35.083 40.4431 35.083 40.3299V33.8662C35.083 33.2311 34.5656 32.7155 33.9284 32.7155H29.2465C28.6092 32.7155 28.0918 33.2311 28.0918 33.8662V40.3299C28.0918 40.4431 27.9972 40.5375 27.8836 40.5375H23.3911C23.2775 40.5375 23.1829 40.4431 23.1829 40.3299V30.7286C23.1829 30.4205 23.063 30.1313 22.8421 29.9175C22.6087 29.6849 22.3184 29.5654 22.0345 29.578H21.1953C20.5959 29.578 20.375 29.119 20.3245 28.9806C20.2678 28.8423 20.1289 28.3519 20.5769 27.9557L25.7004 23.4286C25.7951 23.3468 25.8519 23.2274 25.8582 23.1079C25.8645 22.9821 25.8266 22.8627 25.7383 22.7684C25.6563 22.6741 25.5364 22.6175 25.4102 22.6112C25.2966 22.6049 25.1641 22.6426 25.0695 22.7307L19.946 27.2578C19.3528 27.7797 19.1572 28.5908 19.4349 29.3265C19.7125 30.0621 20.4066 30.5337 21.189 30.5337H22.0849L22.2238 30.672V40.3362C22.2238 40.9713 22.7412 41.4869 23.3785 41.4869H27.871C28.5083 41.4869 29.0257 40.9713 29.0257 40.3362V33.8725C29.0257 33.7593 29.1203 33.665 29.2339 33.665L29.2465 33.6713Z" fill="#231F20"/>
<path d="M33.1453 18.8574C32.8866 18.8574 32.672 18.6499 32.672 18.3858C32.6594 16.6441 32.2872 14.6949 31.5868 12.7394C30.552 9.8408 28.9304 7.36975 27.252 6.11221C27.0437 5.95501 26.9996 5.65948 27.1573 5.45198C27.3151 5.24449 27.6116 5.20048 27.8199 5.35767C29.6434 6.71582 31.3849 9.35666 32.4827 12.4188C33.221 14.4749 33.6122 16.5309 33.6248 18.3795C33.6248 18.6373 33.4166 18.8511 33.1516 18.8511L33.1453 18.8574Z" fill="#010101"/>
<path d="M33.1522 19.015C32.8052 19.015 32.5212 18.7321 32.5212 18.3862C32.5086 16.6634 32.1364 14.7268 31.4423 12.7902C30.4138 9.92299 28.8111 7.47077 27.158 6.23838C26.8803 6.03089 26.8236 5.63476 27.0318 5.3581C27.1327 5.22606 27.2778 5.13804 27.4482 5.11289C27.6186 5.08774 27.7826 5.13176 27.9151 5.23236C29.7576 6.60937 31.5243 9.27535 32.6285 12.3689C33.3731 14.4376 33.7706 16.5188 33.7769 18.38C33.7769 18.5497 33.7138 18.7069 33.5939 18.8264C33.474 18.9459 33.3163 19.015 33.1459 19.015H33.1522ZM27.5365 5.42099C27.5365 5.42099 27.505 5.42099 27.4924 5.42099C27.4103 5.43356 27.3346 5.47758 27.2842 5.54675C27.1769 5.68508 27.2084 5.88627 27.3473 5.98688C29.0509 7.25699 30.6914 9.7595 31.7388 12.6833C32.4455 14.6576 32.8241 16.6257 32.8304 18.3862C32.8304 18.556 32.9755 18.7006 33.1459 18.7006C33.2279 18.7006 33.31 18.6692 33.3667 18.6063C33.4235 18.5434 33.4614 18.468 33.4551 18.3862C33.4425 16.5565 33.0513 14.513 32.3256 12.4758C31.2404 9.43883 29.5178 6.82944 27.7195 5.48387C27.6627 5.43985 27.5996 5.42099 27.5302 5.42099H27.5365Z" fill="#231F20"/>
<path d="M30.34 23.8123C28.1379 23.8123 25.4815 21.247 23.7022 17.2543C23.4813 16.7638 23.2794 16.2608 23.1027 15.7578C22.1941 13.2176 21.8029 10.6585 22.0174 8.56466C22.131 7.4706 22.396 6.56517 22.8125 5.86723C22.8819 5.74776 22.9324 5.64088 22.9828 5.54028C23.1153 5.25733 23.2731 4.93036 23.6706 4.704C23.8977 4.57196 24.188 4.6537 24.3142 4.88005C24.4404 5.10641 24.3647 5.39566 24.1375 5.52141C24.005 5.59687 23.9608 5.6849 23.841 5.9364C23.7842 6.06216 23.7148 6.20048 23.6327 6.3451C23.292 6.91728 23.0586 7.71581 22.9639 8.65268C22.7683 10.6144 23.1343 13.0226 23.9987 15.4371C24.1691 15.915 24.3647 16.3992 24.5729 16.8645C26.3333 20.8131 29.1159 23.4037 30.9079 22.7686C31.7912 22.4542 32.2203 21.467 32.4222 20.6874C32.4916 20.4359 32.7503 20.285 33.0027 20.3541C33.2551 20.4233 33.4065 20.6811 33.3371 20.9326C32.9585 22.3599 32.2266 23.303 31.2234 23.6614C30.9394 23.7621 30.6492 23.8123 30.3463 23.8123H30.34Z" fill="#010101"/>
<path d="M30.34 23.9693C28.0559 23.9693 25.3301 21.297 23.557 17.3169C23.3362 16.8202 23.1343 16.3171 22.9513 15.8141C22.0301 13.2487 21.6452 10.6708 21.8597 8.55182C21.9733 7.4389 22.2509 6.5083 22.68 5.78521C22.7431 5.67832 22.7935 5.57144 22.8377 5.47712C22.9765 5.1816 23.1532 4.8169 23.5949 4.5654C23.74 4.48365 23.9104 4.45851 24.0744 4.50881C24.2385 4.55282 24.371 4.65971 24.453 4.80433C24.6234 5.10614 24.5161 5.4897 24.2133 5.65947C24.1249 5.70977 24.0934 5.76635 23.9798 6.00529C23.9167 6.13733 23.8536 6.27567 23.7589 6.42657C23.4308 6.97989 23.2037 7.75328 23.109 8.67129C22.9134 10.6079 23.2794 12.9909 24.1375 15.3866C24.3079 15.8644 24.5035 16.3423 24.7054 16.8013C26.4027 20.6054 29.1538 23.2211 30.8448 22.6237C31.6587 22.3345 32.0626 21.3913 32.2582 20.6557C32.3465 20.3224 32.6936 20.1212 33.028 20.2092C33.3687 20.2973 33.5643 20.6431 33.476 20.9763C33.0848 22.4539 32.3213 23.4348 31.2612 23.8121C30.9647 23.919 30.6555 23.9693 30.3274 23.9693H30.34ZM23.9041 4.79176C23.8536 4.79176 23.7968 4.80434 23.7463 4.83578C23.3867 5.03699 23.2542 5.32622 23.1217 5.60288C23.0712 5.71606 23.0144 5.82294 22.945 5.94241C22.5412 6.62148 22.2761 7.50805 22.1689 8.57696C21.9607 10.6519 22.3456 13.1796 23.2479 15.7009C23.4245 16.1977 23.6264 16.6944 23.841 17.1848C25.5635 21.0518 28.1758 23.6549 30.3337 23.6549C30.6239 23.6549 30.9016 23.6046 31.1603 23.5166C32.113 23.177 32.8071 22.2716 33.1731 20.9009C33.2172 20.7311 33.1163 20.5613 32.9459 20.5173C32.7819 20.4796 32.6052 20.5739 32.561 20.7437C32.3465 21.5548 31.8922 22.5923 30.9457 22.9318C29.0717 23.592 26.2071 20.9638 24.4151 16.9396C24.2069 16.468 24.0113 15.9839 23.8347 15.4997C22.9639 13.0601 22.5916 10.6268 22.7936 8.64613C22.8945 7.67783 23.128 6.86042 23.4813 6.26938C23.5633 6.13105 23.6264 5.99272 23.6832 5.87325C23.8031 5.62803 23.8662 5.48971 24.0492 5.3891C24.2006 5.30108 24.2574 5.11243 24.1691 4.96152C24.1249 4.88607 24.0618 4.83578 23.9798 4.81063C23.9545 4.80434 23.923 4.79806 23.8978 4.79806L23.9041 4.79176Z" fill="#231F20"/>
<path d="M32.3575 24.6374C32.2124 24.6374 32.0862 24.5431 32.0483 24.3985C32.0105 24.2287 32.1114 24.0589 32.2818 24.0212C33.0516 23.8388 33.5879 23.1598 33.5879 22.3738C33.5879 21.4369 32.8244 20.6761 31.8843 20.6761C31.1965 20.6761 30.5845 21.0848 30.3131 21.7136C30.2437 21.8771 30.0607 21.9462 29.8967 21.8834C29.7389 21.8142 29.6632 21.6319 29.7263 21.4684C30.0923 20.607 30.9378 20.0474 31.878 20.0474C33.1651 20.0474 34.2126 21.0911 34.2126 22.3738C34.2126 23.4553 33.4743 24.3859 32.4206 24.6374C32.3953 24.6374 32.3701 24.6437 32.3449 24.6437L32.3575 24.6374Z" fill="#010101"/>
<path d="M32.3587 24.7936C32.1379 24.7936 31.9486 24.6427 31.8981 24.4289C31.835 24.1774 31.9927 23.9196 32.2451 23.863C32.9455 23.6995 33.4314 23.0833 33.4314 22.3665C33.4314 21.5177 32.7373 20.826 31.8855 20.826C31.2608 20.826 30.7056 21.197 30.4595 21.7692C30.3585 22.0081 30.0809 22.1213 29.8411 22.0207C29.7212 21.9704 29.6329 21.8824 29.5824 21.7629C29.5319 21.6434 29.5382 21.5177 29.5824 21.4045C29.9736 20.4865 30.8759 19.8892 31.8792 19.8892C33.2547 19.8892 34.3715 21.0021 34.3715 22.3728C34.3715 23.5297 33.5828 24.5232 32.4597 24.7873C32.4281 24.7936 32.3903 24.7998 32.3524 24.7998L32.3587 24.7936ZM31.8918 20.5116C32.9203 20.5116 33.7532 21.3416 33.7532 22.3665C33.7532 23.2279 33.1663 23.9699 32.3272 24.1711C32.283 24.1836 32.2514 24.2088 32.2262 24.2403C32.201 24.2717 32.1946 24.3157 32.2073 24.3597C32.2262 24.4415 32.3272 24.4918 32.3966 24.4792C33.3809 24.2466 34.0686 23.3788 34.0686 22.3665C34.0686 21.1718 33.0906 20.1973 31.8918 20.1973C31.0147 20.1973 30.226 20.7191 29.8853 21.5239C29.8664 21.5617 29.8664 21.6057 29.8853 21.6434C29.8979 21.6811 29.9295 21.7126 29.9673 21.7315C30.0493 21.7629 30.144 21.7315 30.1755 21.6497C30.4658 20.9644 31.1409 20.5179 31.8918 20.5179V20.5116Z" fill="#231F20"/>
</svg>
