<svg width="32" height="32" viewBox="0 0 32 32" fill="none" xmlns="http://www.w3.org/2000/svg">
<path d="M13.4127 28.7734C12.0794 28.7734 10.7327 27.8667 8.93269 26.08L4.31936 21.4667C0.399357 17.5467 0.799357 16.04 4.31936 12.5067L11.746 5.06668C14.3727 2.44002 16.546 0.906684 20.706 5.06668L25.3194 9.68002C29.066 13.4267 28.1594 15.8 25.3194 18.64L17.8927 26.0667C16.0927 27.8667 14.7594 28.7734 13.4127 28.7734ZM5.73269 20.04L10.346 24.6534C13.1727 27.48 13.6394 27.4934 16.4794 24.6534L23.906 17.2267C26.1327 15 26.706 13.8933 23.906 11.0933L19.2927 6.48002C16.3727 3.56002 15.4927 4.16002 13.1594 6.48002L5.73269 13.9067C2.90602 16.7467 2.66602 16.9733 5.73269 20.04Z" fill="#030712"/>
<path d="M26.8526 28.6133C25.3326 28.6133 24.1326 28.0267 23.5459 27C22.9593 25.9733 23.0793 24.64 23.8659 23.3333L24.7459 21.88C25.2659 21.0267 26.0259 20.5333 26.8526 20.5333C27.6793 20.5333 28.4526 21.0267 28.9593 21.88L29.8393 23.3333C30.6259 24.64 30.7326 25.9733 30.1593 27C29.5859 28.0267 28.3593 28.6133 26.8526 28.6133ZM26.8526 22.5333C26.7859 22.5333 26.6259 22.64 26.4526 22.9067L25.5726 24.36C25.1726 25.0267 25.0659 25.6267 25.2793 26.0133C25.4926 26.4 26.0659 26.6133 26.8393 26.6133C27.6126 26.6133 28.1859 26.4 28.3993 26.0133C28.6126 25.6267 28.5059 25.04 28.1059 24.36L27.2259 22.9067C27.0793 22.6267 26.9193 22.5333 26.8526 22.5333Z" fill="#030712"/>
<path d="M2.6675 17.32C2.2275 17.32 1.8275 17.0267 1.7075 16.5867C1.56083 16.0533 1.88083 15.5067 2.41416 15.36C9.97416 13.3067 17.9875 13.24 25.5875 15.1867L26.2542 15.36C26.7875 15.4933 27.1075 16.04 26.9742 16.5733C26.8408 17.1067 26.2942 17.4267 25.7608 17.2933L25.0942 17.12C17.8275 15.2533 10.1742 15.32 2.9475 17.2933C2.84083 17.32 2.7475 17.32 2.6675 17.32Z" fill="#030712"/>
</svg>
