<svg width="29" height="47" viewBox="0 0 29 47" fill="none" xmlns="http://www.w3.org/2000/svg">
<path d="M19.8465 42.4116H9.14592C8.74151 42.4116 8.41797 42.6615 8.41797 42.9678C8.41797 43.274 8.74151 43.5239 9.14592 43.5239H19.8465C20.2509 43.5239 20.5744 43.274 20.5744 42.9678C20.5744 42.6615 20.2509 42.4116 19.8465 42.4116Z" fill="#231F20"/>
<path d="M27.8859 14.315V4.03058C27.8859 1.9189 26.1631 0.202148 24.044 0.202148H4.95611C2.83702 0.202148 1.11426 1.9189 1.11426 4.03058V42.8066C1.11426 44.9183 2.83702 46.635 4.95611 46.635H24.044C26.1631 46.635 27.8859 44.9183 27.8859 42.8066V14.315ZM8.83032 1.65294H20.1699H8.83032ZM21.6257 1.65294H24.044C25.3624 1.65294 26.43 2.71682 26.43 4.03058V42.8066C26.43 44.1203 25.3624 45.1842 24.044 45.1842H4.95611C3.63775 45.1842 2.57013 44.1203 2.57013 42.8066V4.03058C2.57013 2.71682 3.63775 1.65294 4.95611 1.65294H7.37447" fill="#231F20"/>
<path d="M24.0441 46.8359H4.95616C2.72385 46.8359 0.912109 45.0304 0.912109 42.8059V4.02993C0.912109 1.80541 2.72385 0 4.95616 0H24.0441C26.2764 0 28.0882 1.80541 28.0882 4.02993V42.8059C28.0882 45.0304 26.2764 46.8359 24.0441 46.8359ZM4.95616 0.402993C2.95031 0.402993 1.31651 2.03108 1.31651 4.02993V42.8059C1.31651 44.8048 2.95031 46.4329 4.95616 46.4329H24.0441C26.0499 46.4329 27.6837 44.8048 27.6837 42.8059V4.02993C27.6837 2.03108 26.0499 0.402993 24.0441 0.402993H4.95616ZM24.0441 45.3851H4.95616C3.53266 45.3851 2.36798 44.2245 2.36798 42.8059V4.02993C2.36798 2.61139 3.53266 1.45079 4.95616 1.45079H7.37452V1.85378H4.95616C3.75103 1.85378 2.77239 2.82901 2.77239 4.02993V42.8059C2.77239 44.0068 3.75103 44.9821 4.95616 44.9821H24.0441C25.2492 44.9821 26.2279 44.0068 26.2279 42.8059V4.02993C26.2279 2.82901 25.2492 1.85378 24.0441 1.85378H21.6258V1.45079H24.0441C25.4676 1.45079 26.6323 2.60333 26.6323 4.02993V42.8059C26.6323 44.2245 25.4676 45.3851 24.0441 45.3851ZM20.1699 1.85378H8.83037V1.45079H20.1699V1.85378Z" fill="#231F20"/>
<path d="M14.4993 19.9884C11.7008 19.9884 9.41992 17.7156 9.41992 14.9268C9.41992 12.1381 11.7008 9.86523 14.4993 9.86523C15.3889 9.86523 16.2705 10.099 17.0389 10.5423C17.2735 10.6793 17.3543 10.9775 17.2168 11.2193C17.0793 11.453 16.7801 11.5336 16.5374 11.3966C15.9227 11.042 15.211 10.8485 14.4912 10.8485C12.2346 10.8485 10.3986 12.6781 10.3986 14.9268C10.3986 17.1755 12.2346 19.0051 14.4912 19.0051C16.7477 19.0051 18.5837 17.1755 18.5837 14.9268C18.5837 14.6367 18.5514 14.3465 18.4948 14.0644C18.4382 13.7985 18.608 13.5405 18.8749 13.4761C19.1418 13.4196 19.4006 13.5889 19.4653 13.8549C19.5381 14.2014 19.5786 14.5641 19.5786 14.9188C19.5786 17.7075 17.2977 19.9804 14.4993 19.9804V19.9884Z" fill="#231F20"/>
<path d="M14.4989 20.0935C11.6438 20.0935 9.31445 17.7803 9.31445 14.9271C9.31445 12.0739 11.6357 9.76074 14.4989 9.76074C15.4129 9.76074 16.3026 10.0025 17.0871 10.4539C17.2246 10.5345 17.3217 10.6634 17.3621 10.8166C17.4026 10.9697 17.3783 11.1309 17.3055 11.2679C17.2246 11.4049 17.0952 11.5017 16.9415 11.542C16.7879 11.5823 16.6261 11.5581 16.4886 11.4855C15.882 11.139 15.1945 10.9536 14.4908 10.9536C12.2909 10.9536 10.5034 12.7348 10.5034 14.9271C10.5034 17.1194 12.2909 18.9006 14.4908 18.9006C16.6908 18.9006 18.4783 17.1194 18.4783 14.9271C18.4783 14.645 18.4459 14.3629 18.3893 14.0889C18.3165 13.7665 18.5268 13.4522 18.8503 13.3796C19.004 13.3474 19.1658 13.3796 19.2952 13.4602C19.4327 13.5489 19.5216 13.6778 19.554 13.839C19.6268 14.2017 19.6672 14.5644 19.6672 14.9271C19.6672 17.7722 17.3459 20.0935 14.4827 20.0935H14.4989ZM14.4989 9.96224C11.749 9.96224 9.51666 12.1868 9.51666 14.9271C9.51666 17.6675 11.749 19.892 14.4989 19.892C17.2489 19.892 19.4812 17.6675 19.4812 14.9271C19.4812 14.5805 19.4408 14.2259 19.368 13.8793C19.3437 13.7745 19.2871 13.6859 19.1981 13.6295C19.1092 13.573 19.0121 13.5569 18.9069 13.573C18.6966 13.6214 18.5592 13.831 18.6077 14.0405C18.6724 14.3307 18.7047 14.6289 18.7047 14.919C18.7047 17.2242 16.8202 19.094 14.5151 19.094C12.21 19.094 10.3255 17.2161 10.3255 14.919C10.3255 12.622 12.21 10.744 14.5151 10.744C15.2511 10.744 15.979 10.9375 16.6099 11.3002C16.6989 11.3485 16.8121 11.3646 16.9092 11.3405C17.0062 11.3163 17.0952 11.2518 17.1437 11.1551C17.2004 11.0664 17.2085 10.9616 17.1842 10.8569C17.1599 10.7521 17.0952 10.6715 16.9982 10.6151C16.246 10.1799 15.3805 9.95417 14.507 9.95417L14.4989 9.96224Z" fill="#231F20"/>
<path d="M14.5008 17.2486C14.3633 17.2486 14.2339 17.1922 14.1368 17.0874L12.2442 15.0321C12.0582 14.8306 12.0744 14.5163 12.2766 14.339C12.4788 14.1536 12.7942 14.1697 12.9722 14.3712L14.4685 15.9993L18.4883 10.8974C18.6581 10.6798 18.9655 10.6476 19.1838 10.8168C19.4022 10.9861 19.4346 11.2924 19.2647 11.51L14.889 17.0713C14.8001 17.1841 14.6626 17.2567 14.517 17.2567H14.5008V17.2486Z" fill="#231F20"/>
<path d="M14.5003 17.3525C14.3304 17.3525 14.1767 17.28 14.0635 17.1591L12.1709 15.1038C11.9525 14.862 11.9687 14.4832 12.2113 14.2656C12.454 14.048 12.8341 14.0641 13.0525 14.2978L14.4679 15.8373L18.4149 10.824C18.6171 10.5661 18.9892 10.5178 19.248 10.7273C19.5068 10.9288 19.5553 11.2996 19.3531 11.5575L14.9775 17.1188C14.8723 17.2558 14.7106 17.3364 14.5326 17.3445H14.5084L14.5003 17.3525ZM12.6077 14.3059C12.5106 14.3059 12.4135 14.3382 12.3407 14.4107C12.179 14.5558 12.1709 14.8056 12.3165 14.9668L14.2091 17.0221C14.2819 17.1027 14.387 17.151 14.5003 17.151C14.6297 17.151 14.7348 17.0946 14.8076 16.9979L19.1833 11.4366C19.3208 11.2673 19.2884 11.0175 19.1186 10.8885C18.9487 10.7515 18.698 10.7838 18.5686 10.953L14.476 16.1516L12.8988 14.4349C12.8179 14.3543 12.7128 14.3059 12.6077 14.3059Z" fill="#231F20"/>
<path d="M14.4993 36.9699C11.7008 36.9699 9.41992 34.697 9.41992 31.9083C9.41992 29.1196 11.7008 26.8467 14.4993 26.8467C15.3889 26.8467 16.2705 27.0804 17.0389 27.5237C17.2735 27.6607 17.3543 27.9589 17.2168 28.2007C17.0793 28.4345 16.7801 28.5151 16.5374 28.378C15.9227 28.0234 15.211 27.83 14.4912 27.83C12.2346 27.83 10.3986 29.6596 10.3986 31.9083C10.3986 34.157 12.2346 35.9866 14.4912 35.9866C16.7477 35.9866 18.5837 34.157 18.5837 31.9083C18.5837 31.6181 18.5514 31.328 18.4948 31.0459C18.4382 30.7799 18.608 30.522 18.8749 30.4575C19.1418 30.4011 19.4006 30.5703 19.4653 30.8363C19.5381 31.1829 19.5786 31.5456 19.5786 31.9002C19.5786 34.6889 17.2977 36.9618 14.4993 36.9618V36.9699Z" fill="#231F20"/>
<path d="M14.4989 37.0744C11.6438 37.0744 9.31445 34.7613 9.31445 31.9081C9.31445 29.0549 11.6357 26.7417 14.4989 26.7417C15.4129 26.7417 16.3026 26.9835 17.0871 27.4349C17.2246 27.5155 17.3217 27.6444 17.3621 27.7975C17.4026 27.9507 17.3783 28.1119 17.3055 28.2489C17.2246 28.3859 17.0952 28.4826 16.9415 28.5229C16.7879 28.5632 16.6261 28.5391 16.4886 28.4665C15.882 28.1199 15.1945 27.9346 14.4908 27.9346C12.2909 27.9346 10.5034 29.7158 10.5034 31.9081C10.5034 34.1004 12.2909 35.8816 14.4908 35.8816C16.6908 35.8816 18.4783 34.1004 18.4783 31.9081C18.4783 31.626 18.4459 31.3439 18.3893 31.0699C18.357 30.9167 18.3893 30.7555 18.4702 30.6266C18.5592 30.4895 18.6886 30.4009 18.8422 30.3686C18.9959 30.3364 19.1496 30.3686 19.2871 30.4492C19.4246 30.5379 19.5136 30.6668 19.5459 30.82C19.6187 31.1827 19.6591 31.5454 19.6591 31.9081C19.6591 34.7532 17.3379 37.0744 14.4747 37.0744H14.4989ZM14.4989 26.9432C11.749 26.9432 9.51666 29.1677 9.51666 31.9081C9.51666 34.6484 11.749 36.873 14.4989 36.873C17.2489 36.873 19.4812 34.6484 19.4812 31.9081C19.4812 31.5615 19.4408 31.2069 19.368 30.8603C19.3437 30.7555 19.2871 30.6669 19.1981 30.6104C19.1092 30.554 19.004 30.5379 18.9069 30.554C18.8018 30.5782 18.7128 30.6346 18.6562 30.7233C18.5996 30.8119 18.5834 30.9167 18.5996 31.0215C18.6643 31.3116 18.6967 31.6099 18.6967 31.9C18.6967 34.2052 16.8121 36.075 14.507 36.075C12.2019 36.075 10.3174 34.1971 10.3174 31.9C10.3174 29.603 12.2019 27.725 14.507 27.725C15.243 27.725 15.971 27.9184 16.6018 28.2811C16.6908 28.3295 16.804 28.3456 16.9011 28.3214C16.9982 28.2973 17.0871 28.2328 17.1357 28.1361C17.1923 28.0474 17.2004 27.9426 17.1761 27.8379C17.1518 27.7331 17.0871 27.6525 16.9901 27.596C16.2379 27.1608 15.3724 26.9352 14.4989 26.9352V26.9432Z" fill="#231F20"/>
<path d="M14.5008 34.2301C14.3633 34.2301 14.2339 34.1737 14.1368 34.0689L12.2442 32.0136C12.0582 31.8121 12.0744 31.4978 12.2766 31.3205C12.4788 31.1351 12.7942 31.1512 12.9722 31.3527L14.4685 32.9808L18.4883 27.8789C18.6581 27.6613 18.9655 27.629 19.1838 27.7983C19.4022 27.9675 19.4346 28.2738 19.2647 28.4914L14.889 34.0527C14.8001 34.1656 14.6626 34.2381 14.517 34.2381H14.5008V34.2301Z" fill="#231F20"/>
<path d="M14.5003 34.3259C14.3304 34.3259 14.1767 34.2534 14.0635 34.1325L12.1709 32.0773C11.9525 31.8355 11.9687 31.4566 12.2113 31.239C12.3246 31.1342 12.4863 31.0859 12.64 31.0859C12.8018 31.0859 12.9474 31.1584 13.0525 31.2793L14.4679 32.8187L18.4149 27.8055C18.6171 27.5476 18.9892 27.5073 19.248 27.7088C19.3693 27.8055 19.4502 27.9506 19.4745 28.1037C19.4906 28.2649 19.4502 28.4181 19.3531 28.539L14.9775 34.1003C14.8723 34.2373 14.7106 34.3179 14.5326 34.3259H14.5084H14.5003ZM12.6077 31.2874C12.5106 31.2874 12.4135 31.3196 12.3407 31.3922C12.179 31.5372 12.1709 31.7871 12.3165 31.9483L14.2091 34.0035C14.2819 34.0841 14.387 34.1325 14.5003 34.1325C14.6297 34.1325 14.7348 34.0761 14.8076 33.9794L19.1833 28.4181C19.248 28.3375 19.2803 28.2327 19.2642 28.1279C19.248 28.0231 19.1995 27.9345 19.1186 27.87C18.9487 27.741 18.698 27.7652 18.5686 27.9345L14.476 33.1331L12.8988 31.4163C12.826 31.3357 12.729 31.2954 12.6238 31.2874C12.6238 31.2874 12.6158 31.2874 12.6077 31.2874Z" fill="#231F20"/>
<path d="M20.3434 2.15977C20.3434 2.89499 19.8149 3.04927 19.1664 3.04927H10.3028C9.65426 3.04927 9.12581 2.89499 9.12581 2.15977V1.17041H7.68457V2.15977C7.68457 3.79358 8.86159 4.6831 10.3028 4.6831H19.1664C20.6076 4.6831 21.7846 3.79358 21.7846 2.15977V1.17041H20.3434V2.15977Z" fill="#231F20"/>
</svg>
